<?xml version="1.0" encoding="utf-8"?>
<!-- Generator: Adobe Illustrator 16.0.0, SVG Export Plug-In . SVG Version: 6.00 Build 0)  -->
<!DOCTYPE svg PUBLIC "-//W3C//DTD SVG 1.1//EN" "http://www.w3.org/Graphics/SVG/1.1/DTD/svg11.dtd">
<svg version="1.1" id="Layer_1" xmlns="http://www.w3.org/2000/svg" xmlns:xlink="http://www.w3.org/1999/xlink" x="0px" y="0px"
	 width="380px" height="470px" viewBox="0 0 380 470" enable-background="new 0 0 380 470" xml:space="preserve">
<g>
	<path fill="#E87251" d="M378.82,24.367C376.53,19.452,273.863-0.136,190,0.001C106.136-0.136,3.469,19.452,1.179,24.367L0,255.124
		c-0.184,149.334,190,214.877,190,214.877s190.185-65.543,190-214.877L378.82,24.367z"/>
</g>
<path opacity="0.25" enable-background="new    " d="M190.879,23c64.314,0,136.137,11.598,165.026,18.072L357,255.176
	c0.031,29.3-8.556,57.366-25.52,83.415c-14.1,21.647-34.002,42.102-59.157,60.79c-33.508,24.896-67.62,40.062-82.322,45.995
	c-14.721-5.941-48.824-21.104-82.325-45.995c-25.155-18.688-45.058-39.143-59.157-60.79C31.555,312.542,22.969,284.476,23,255.176
	l1.095-214.104C52.986,34.598,124.806,23,189.122,23l0.841,0.001H190h0.037L190.879,23 M190.879,0c-0.298,0-0.583,0-0.879,0.001
	c-0.291,0-0.586-0.001-0.878-0.001C105.421,0,3.462,19.469,1.18,24.367L0,255.124c-0.184,149.334,190,214.877,190,214.877
	s190.185-65.543,190-214.877l-1.18-230.757C376.538,19.47,274.576,0,190.879,0L190.879,0z"/>
<path opacity="0.1" enable-background="new    " d="M190.879,23l-0.842,0.001H190v422.376c0,0,0,0,0.002,0
	c14.702-5.935,48.814-21.1,82.322-45.995c25.155-18.688,45.059-39.143,59.157-60.79c16.964-26.049,25.551-54.114,25.52-83.415
	l-1.095-214.104C327.015,34.598,255.193,23,190.879,23z"/>
</svg>
